<svg fill="none" height="32" viewBox="0 0 243 32" width="243" xmlns="http://www.w3.org/2000/svg" xmlns:xlink="http://www.w3.org/1999/xlink"><linearGradient id="a" gradientUnits="userSpaceOnUse" x1="5.43379" x2="1.39529" y1="26.8518" y2="15.1775"><stop offset=".1444" stop-color="#f2e913"/><stop offset=".3037" stop-color="#e7e518"/><stop offset=".5823" stop-color="#cadb26"/><stop offset=".891" stop-color="#a3cd39"/></linearGradient><linearGradient id="b" gradientUnits="userSpaceOnUse" x1="5.74245" x2="16.1448" y1="5.34107" y2="1.37671"><stop offset=".0592" stop-color="#0fa8e0"/><stop offset=".5385" stop-color="#0099f9"/><stop offset=".9234" stop-color="#0291eb"/></linearGradient><linearGradient id="c" gradientUnits="userSpaceOnUse" x1="14.9567" x2="26.7201" y1="29.7707" y2="27.1118"><stop offset=".1226" stop-color="#a3cd39"/><stop offset=".2846" stop-color="#86c339"/><stop offset=".8693" stop-color="#21a038"/></linearGradient><linearGradient id="d" gradientUnits="userSpaceOnUse" x1="15.2277" x2="25.2851" y1="1.23914" y2="4.34246"><stop offset=".0566" stop-color="#0291eb"/><stop offset=".79" stop-color="#0c8acb"/></linearGradient><linearGradient id="e" gradientUnits="userSpaceOnUse" x1="5.06365" x2="16.0112" y1="26.2852" y2="30.3758"><stop offset=".1324" stop-color="#f2e913"/><stop offset=".2977" stop-color="#ebe716"/><stop offset=".5306" stop-color="#d9e01f"/><stop offset=".8023" stop-color="#bbd62d"/><stop offset=".9829" stop-color="#a3cd39"/></linearGradient><linearGradient id="f" gradientUnits="userSpaceOnUse" x1="1.37596" x2="5.76998" y1="16.4484" y2="5.01726"><stop offset=".0698" stop-color="#a3cd39"/><stop offset=".2599" stop-color="#81c55f"/><stop offset=".9216" stop-color="#0fa8e0"/></linearGradient><path d="m93.1366 9.60441 4.3222-3.19718h-14.4793v19.18307h14.4793v-3.1972h-10.3566v-4.9123h8.8272v-3.1805h-8.8272v-4.69589z" fill="#2b9b48"/><path d="m71.3238 22.3931h-4.3222v-5.3119h4.3222c2.6265 0 3.8401.8825 3.8401 2.6643 0 1.7817-1.28 2.6476-3.8401 2.6476zm.6649-8.5091h-4.9871v-4.27959h8.0293l4.3222-3.19718h-16.4742v19.18307h8.6278c4.8375 0 7.6137-2.198 7.6137-6.028s-2.5102-5.6783-7.1317-5.6783z" fill="#2b9b48"/><path d="m109.09 16.9646h-3.657v-7.36019h3.657c2.644 0 4.107 1.31549 4.107 3.68009s-1.463 3.6801-4.107 3.6801zm.084-10.55737h-7.88v19.18307h4.139v-5.4285h3.741c4.987 0 8.162-2.6477 8.162-6.8939 0-4.24631-3.125-6.86067-8.162-6.86067z" fill="#2b9b48"/><path d="m55.7955 21.4443c-1.0986.5898-2.3277.8933-3.5741.8825-.844.0369-1.6866-.1007-2.4752-.4043-.7885-.3036-1.5062-.7667-2.1083-1.3604-.602-.5937-1.0755-1.3053-1.3909-2.0903-.3154-.7851-.466-1.6268-.4424-2.4728-.0236-.8459.127-1.6876.4424-2.4727.3154-.785.7889-1.4966 1.3909-2.0903.6021-.5937 1.3198-1.0568 2.1083-1.3604.7886-.3036 1.6312-.44124 2.4752-.40431 1.3466-.0205 2.664.39411 3.757 1.18231l2.9756-2.19809-.2659-.16652c-1.855-1.56963-4.2223-2.39959-6.6496-2.33128-2.6915-.05673-5.3027.9204-7.2978 2.73093-.9358.90775-1.6755 1.99846-2.173 3.20436-.4976 1.206-.7425 2.5015-.7195 3.8061-.0213 1.3179.2223 2.6265.7164 3.8481.4941 1.2215 1.2285 2.331 2.1595 3.2623 1.9735 1.8675 4.6001 2.8841 7.3144 2.8309 1.3605.0471 2.716-.189 3.9807-.6935 1.2648-.5045 2.4113-1.2663 3.3671-2.2373l-2.6765-1.9649z" fill="#2b9b48"/><g fill="#469c99"><path d="m129.772 12.5357c-.011.5081.062 1.0146.216 1.4987.124.4161.367.7867.699 1.0657.386.3173.842.5397 1.33.6494.68.1614 1.378.2342 2.078.2165.719 0 1.437-.0669 2.144-.1998.649-.1012 1.281-.2917 1.879-.5662v-8.80889h3.424v19.19979h-3.424v-7.3436c-.674.2548-1.369.4444-2.078.5662-.839.1549-1.691.233-2.544.2331-1.122.0269-2.241-.1077-3.325-.3996-.807-.2194-1.56-.605-2.211-1.1324-.555-.4691-.983-1.0702-1.246-1.7484-.271-.7636-.395-1.5715-.366-2.3812v-6.99389h3.424z"/><path d="m163.905 25.5909h-3.624l-1.845-4.546h-8.778l-1.812 4.546h-3.474l7.763-19.19979h3.89zm-6.733-7.7099-3.142-7.8264-3.141 7.8264z"/><path d="m178.994 17.2815h-8.811v5.1621h10.124v3.1473h-13.565v-19.19979h13.299v3.16388h-9.824v4.57931h8.81z"/><path d="m184.516 25.5909v-19.19979h8.312c4.311 0 6.461 1.59305 6.45 4.77909.042.9626-.195 1.9168-.682 2.7476-.521.7749-1.28 1.3593-2.161 1.6652.506.0525.998.2045 1.446.4474.447.2429.843.5718 1.164.968.582.8871.868 1.937.814 2.9974.017.8768-.159 1.7465-.515 2.5478-.338.7034-.854 1.3062-1.496 1.7484-.718.4744-1.519.8078-2.361.9825-1.026.2251-2.075.3313-3.125.3164zm7.829-11.0736c.937.0621 1.869-.1771 2.66-.6827.307-.2169.554-.5074.72-.8449.165-.3374.244-.7111.228-1.0868.002-.3478-.084-.6904-.25-.9961-.166-.3056-.406-.5644-.698-.7523-.798-.46789-1.721-.67726-2.643-.59951h-4.488v4.99561zm.25 7.9263c1.007.075 2.014-.151 2.892-.6494.318-.2328.57-.5434.733-.9021s.231-.7534.198-1.1461c.038-.3868-.034-.7764-.208-1.124-.173-.3475-.441-.639-.773-.8409-.864-.4346-1.827-.6355-2.792-.5828h-4.705v5.2453z"/><path d="m207.322 12.3692h2.261c2.339-.1975 4.678.3882 6.649 1.6652.693.5931 1.239 1.3398 1.594 2.1809s.509 1.7535.451 2.6648c.059.9477-.109 1.8958-.491 2.765-.382.8691-.966 1.634-1.703 2.2306-1.9 1.2285-4.144 1.8123-6.401 1.6652h-5.718v-19.14979h3.424zm0 3.1639v6.9105h2.51c1.266.0869 2.528-.209 3.624-.8492.427-.3221.764-.7484.979-1.2381.216-.4898.302-1.0267.251-1.5594.046-.4838-.034-.9712-.232-1.4147-.198-.4436-.508-.8282-.898-1.1165-1.108-.5671-2.35-.8205-3.591-.7326zm13.05-9.14199h3.424v19.19979h-3.424z"/><path d="m241.151 17.2815h-8.81v5.1621h10.123v3.1473h-13.548v-19.19979h13.299v3.16388h-9.825v4.57931h8.811z"/></g><path d="m28.6623 6.21875c.7561.97625 1.402 2.04251 1.9177 3.18076l-14.58 10.74409-6.09082-3.8182v-4.5933l6.09082 3.8182z" fill="#21a038"/><path d="m3.69557 16.0001c0-.2065.00529-.4108.01588-.6152l-3.6913306-.1842c-.01270683.2647-.0201194.5315-.0201194.7994 0 4.4186 1.7906 8.4189 4.6867 11.3137l2.6176-2.6174c-2.22899-2.2278-3.60873-5.3038-3.60873-8.6963z" fill="url(#a)"/><path d="m16.0009 3.69642c.2065 0 .4108.00741.6152.01694l.1843-3.6932417c-.2648-.01270614-.5316-.0201183-.7995-.0201183-4.4188 0-8.41934 1.7905-11.31438 4.68644l2.61761 2.61745c2.22792-2.2278 5.30507-3.60747 8.69677-3.60747z" fill="url(#b)"/><path d="m15.9997 28.3048c-.2065 0-.4109-.0053-.6153-.0159l-.1842 3.6912c.2647.0127.5316.0201.7995.0201 4.4188 0 8.4193-1.7905 11.3143-4.6865l-2.6176-2.6174c-2.2279 2.2278-5.304 3.6085-8.6967 3.6085z" fill="url(#c)"/><path d="m22.9378 5.84375 3.1121-2.29345c-2.7467-2.21933-6.2422-3.5503-10.0489-3.5503v3.69642c2.572 0 4.9609.79307 6.9368 2.14733z" fill="url(#d)"/><path d="m32.0001 16.0006c0-.9784-.0879-1.9367-.2563-2.8663l-3.4446 2.538c.0032.1091.0043.2181.0043.3283 0 3.6127-1.5651 6.8666-4.0535 9.1198l2.4831 2.7445c3.235-2.9266 5.267-7.1578 5.267-11.8643z" fill="#21a038"/><path d="m16.0017 28.3047c-3.613 0-6.86697-1.565-9.12031-4.0532l-2.74467 2.483c2.92786 3.2337 7.15918 5.2656 11.86498 5.2656z" fill="url(#e)"/><path d="m7.74905 6.88026-2.48313-2.74452c-3.23389 2.9277-5.26592 7.15886-5.26592 11.86436h3.69663c-.00106-3.6128 1.564-6.86662 4.05242-9.11984z" fill="url(#f)"/></svg>